<?xml version="1.0" encoding="utf-8"?>
<!-- Generator: Adobe Illustrator 26.0.1, SVG Export Plug-In . SVG Version: 6.00 Build 0)  -->
<svg version="1.1" id="Capa_1" xmlns="http://www.w3.org/2000/svg" xmlns:xlink="http://www.w3.org/1999/xlink" x="0px" y="0px"
	 viewBox="0 0 136 59" style="enable-background:new 0 0 136 59;" xml:space="preserve">
<style type="text/css">
	.st0{fill:#FFFFFF;}
</style>
<g>
	<g>
		<g>
			<path class="st0" d="M122.7,8.2l2.8-5.7c-1.4-0.5-4-1.1-6-1.4l-2.1,6.3C119,7.7,121,8,122.7,8.2z"/>
			<g>
				<g>
					<path class="st0" d="M14.6,11.8c-2.5,0.4-5.1,0.8-7.6,1.3l1.4,18.1L9.8,49c2.2-0.5,4.1-1,6.3-1.4L14.6,11.8z"/>
				</g>
				<path class="st0" d="M29.1,27L40,25.8c0,0,1.6,17.7-9.3,19.5c-6.3,1-11.3-3.8-11.8-14.2c-0.5-10.9,3.4-21,10.8-21.7
					C38,8.6,39,15.2,39,15.2l-3.9,3.1c0,0-1.3-3.7-4.2-3.1c-6.5,1.4-7.2,24.8-0.6,23.7c3.4-0.5,3.2-6.9,3.2-6.9l-4.6,0.6L29.1,27z"
					/>
				<g>
					<path class="st0" d="M110.2,19.8c-0.1,9.3,0.3,12.2,1.6,15c2,4.3,5.2,4.9,7.4,4.9c3,0.1,5.6-1.4,7.3-4.2
						c2.1-3.5,2.4-8.1,2.5-15.6v-1.8c0-2.1,0-5.3,0-6.3c-2.1-0.3-4.2-0.6-6.3-0.9v7.2v1.5c-0.1,8.8,0.1,10.4-0.7,12
						c-0.6,1.3-1.5,1.8-2.4,1.8c-0.8,0-1.5-0.2-2.1-1.2c-1-1.7-1.2-4.5-1.1-10.7v-2.6c0-3.1,0.1-7.7,0.1-8.7
						c-2.1-0.2-4.2-0.5-6.3-0.7c0,2.1,0,7.1,0,8.4V19.8z"/>
				</g>
				<g>
					<path class="st0" d="M42.3,18.8v2.3c-0.1,10.2,0.4,13.3,1.8,16.2c2.2,4.5,6.1,4.9,8.5,4.7c3.3-0.2,6-2,7.8-5.3
						c2.3-4,2.4-9.1,2.5-17.3v-2c0-1.5,0-6.6,0-9.9c-2.2,0.1-4.4,0.1-6.6,0.2v10.2v1.6c-0.1,9.6-0.1,11.4-1,13.2
						c-0.7,1.4-1.6,2.1-2.6,2.2c-0.9,0.1-1.8-0.2-2.5-1.3c-1.1-1.8-1.3-4.8-1.3-11.6v-2.9c0-2.1,0-7.6,0-11
						c-2.2,0.1-4.4,0.3-6.7,0.5C42.3,12.2,42.3,17.8,42.3,18.8z"/>
				</g>
				<g>
					<g>
						<path class="st0" d="M72.4,7.5L64,40.3c2.2-0.2,4.5-0.4,6.8-0.5l1.6-7.2h6.9l1.1,6.7c2.2-0.1,4.4-0.2,6.6-0.2L81.2,7.6
							C78.2,7.5,75.3,7.5,72.4,7.5z M73.9,26.6l2.6-12.1l1.8,12.1H73.9z"/>
					</g>
				</g>
				<g>
					<path class="st0" d="M99.2,32.9h-0.3l0.1-0.2l8.3-23.5C100.6,8.5,93.8,8,87,7.8l1.1,5.4l10.3,0.7l-0.1,0.2L89.8,39
						c2.4,0,4.7-0.1,7.1-0.1c3.2,0,6.4,0,9.6,0.1l1.6-6.1C105.3,32.9,102.3,32.9,99.2,32.9z"/>
				</g>
			</g>
		</g>
		<g>
			<g>
				<g>
					<path class="st0" d="M37.6,51.4h1l2.8,6.3h-1.2l-0.6-1.5h-3L36,57.7h-1.1L37.6,51.4z M39.2,55.2l-1.1-2.5L37,55.2H39.2z"/>
					<path class="st0" d="M45,51.4h2.8c0.4,0,0.7,0.1,1,0.2c0.3,0.1,0.6,0.3,0.8,0.5s0.3,0.4,0.4,0.6c0.1,0.2,0.1,0.5,0.1,0.8l0,0
						c0,0.3,0,0.5-0.1,0.7s-0.2,0.4-0.3,0.5c-0.1,0.2-0.3,0.3-0.5,0.4c-0.2,0.1-0.4,0.2-0.6,0.3l1.7,2.4H49l-1.5-2.2l0,0h-1.4v2.2
						H45V51.4z M47.7,54.5c0.4,0,0.7-0.1,0.9-0.3s0.4-0.4,0.4-0.8l0,0c0-0.3-0.1-0.6-0.3-0.8s-0.5-0.3-1-0.3h-1.6v2.1L47.7,54.5
						L47.7,54.5z"/>
					<path class="st0" d="M56.6,57.8c-0.5,0-0.9-0.1-1.3-0.2c-0.4-0.2-0.7-0.4-1-0.7s-0.5-0.6-0.7-1s-0.2-0.8-0.2-1.3l0,0
						c0-0.4,0.1-0.9,0.2-1.2c0.2-0.4,0.4-0.7,0.7-1s0.6-0.5,1-0.7s0.8-0.3,1.3-0.3c0.3,0,0.5,0,0.7,0.1c0.2,0,0.4,0.1,0.6,0.2
						c0.2,0.1,0.4,0.2,0.5,0.3c0.2,0.1,0.3,0.2,0.5,0.4L58.3,53c-0.1-0.1-0.2-0.2-0.4-0.3c-0.1-0.1-0.3-0.2-0.4-0.2
						c-0.1-0.1-0.3-0.1-0.5-0.1s-0.3,0-0.5,0c-0.3,0-0.6,0.1-0.8,0.2c-0.2,0.1-0.5,0.3-0.6,0.5c-0.2,0.2-0.3,0.4-0.4,0.7
						c-0.1,0.3-0.2,0.6-0.2,0.9l0,0c0,0.3,0.1,0.6,0.2,0.9c0.1,0.3,0.2,0.5,0.4,0.7s0.4,0.4,0.7,0.5s0.5,0.2,0.9,0.2
						c0.3,0,0.6,0,0.8-0.1c0.3-0.1,0.5-0.2,0.7-0.3v-1.2h-1.6v-1h2.7V57c-0.2,0.1-0.3,0.3-0.5,0.4c-0.2,0.1-0.4,0.2-0.6,0.3
						c-0.2,0.1-0.5,0.2-0.7,0.2S56.9,57.8,56.6,57.8z"/>
					<path class="st0" d="M63.2,51.4h4.6v1h-3.6V54h3.1v1h-3.1v1.7h3.6v1h-4.7L63.2,51.4L63.2,51.4z"/>
					<path class="st0" d="M71.7,51.4h1l3.4,4.3v-4.3h1.1v6.3h-0.9l-3.5-4.5v4.5h-1.1V51.4z"/>
					<path class="st0" d="M82.6,52.4h-2v-1h5.1v1h-2v5.3h-1.1V52.4z"/>
					<path class="st0" d="M89.1,51.4h1.1v6.3h-1.1V51.4z"/>
					<path class="st0" d="M94.2,51.4h1l3.4,4.3v-4.3h1.1v6.3h-0.9l-3.5-4.5v4.5h-1.1V51.4z"/>
					<path class="st0" d="M106.4,51.4h1l2.8,6.3H109l-0.6-1.5h-3l-0.6,1.5h-1.1L106.4,51.4z M108,55.2l-1.1-2.5l-1.1,2.5H108z"/>
				</g>
			</g>
		</g>
	</g>
</g>
</svg>
